<?xml version="1.0" encoding="utf-8"?>
<!-- Generator: Adobe Illustrator 23.0.0, SVG Export Plug-In . SVG Version: 6.00 Build 0)  -->
<svg version="1.1" id="图层_1" xmlns="http://www.w3.org/2000/svg" xmlns:xlink="http://www.w3.org/1999/xlink" x="0px" y="0px"
	 viewBox="0 0 1024 1024" style="enable-background:new 0 0 1024 1024;" xml:space="preserve">
<style type="text/css">
	.st0{fill:none;stroke:url(#SVGID_1_);stroke-width:5;stroke-miterlimit:10;}
	.st1{fill:url(#SVGID_2_);}
	.st2{fill:#FFFFFF;}
	.st3{fill:#4F46A3;}
	.st4{fill:url(#SVGID_3_);}
	.st5{fill:url(#SVGID_4_);}
</style>
<g>
	<radialGradient id="SVGID_1_" cx="505.8835" cy="547" r="0" gradientUnits="userSpaceOnUse">
		<stop  offset="0" style="stop-color:#FFB300"/>
		<stop  offset="0.4946" style="stop-color:#FFE600"/>
		<stop  offset="1" style="stop-color:#FF9F00"/>
	</radialGradient>
	<path class="st0" d="M505.88,547"/>
</g>
<g>
	<g>
		<linearGradient id="SVGID_2_" gradientUnits="userSpaceOnUse" x1="441.8835" y1="416" x2="441.8835" y2="416">
			<stop  offset="0" style="stop-color:#21D4FD"/>
			<stop  offset="1" style="stop-color:#B721FF"/>
		</linearGradient>
		<path class="st1" d="M441.88,416"/>
	</g>
</g>
<path class="st2" d="M419.8,379.42l-1.15,1.98c1.49-0.52,2.94-1.18,4.36-1.98H419.8z"/>
<g>
	<path class="st2" d="M484,450.51h14.75l-18.03-31.23l-11.34,19.64C475.84,440.36,481.2,444.7,484,450.51z"/>
	<path class="st2" d="M467.09,442.9l-4.39,7.61h16.34C476.4,446.46,472.09,443.59,467.09,442.9z"/>
</g>
<g>
	<path class="st3" d="M453.31,567.7"/>
</g>
<g>
	
		<linearGradient id="SVGID_3_" gradientUnits="userSpaceOnUse" x1="552.5669" y1="-43.2758" x2="1296.4747" y2="-43.2758" gradientTransform="matrix(0.6878 -0.435 0.3874 0.6126 -150.7141 1062.834)">
		<stop  offset="0" style="stop-color:#56FCFF"/>
		<stop  offset="0.2957" style="stop-color:#78C5FE"/>
		<stop  offset="0.6222" style="stop-color:#998FFD"/>
		<stop  offset="0.867" style="stop-color:#AE6EFC"/>
		<stop  offset="1" style="stop-color:#B661FC"/>
	</linearGradient>
	<path class="st4" d="M674.8,394.19c-19.16-30.29-58.51-39.91-87.72-21.44l-76.26,48.23l8.48-41.14c3.43-16.64,0.2-33.92-9.1-48.63
		c-9.3-14.71-23.52-25.04-40.03-29.07c-34.2-8.36-67.81,12.89-74.92,47.38L363.18,505.1c-0.64,3.12-1.03,6.37-1.18,9.7l-0.35,0.22
		l-0.42,0.26l-0.92,0.58l-0.92,0.58l-0.92,0.58l-0.92,0.58l-0.92,0.58l-0.92,0.58l-0.92,0.58l-0.92,0.58l0.13,0.21l-20.2,12.77
		c-113.28,71.64-150.84,216.26-83.73,322.38s213.88,134.17,327.16,62.53l61.23-38.72c3.1-1.33,5.83-2.75,8.32-4.32l131.79-83.35
		c29.21-18.47,37.39-58.15,18.23-88.44c-11.86-18.75-31.58-29.86-52.23-30.75c8.05-19.04,6.46-41.62-5.4-60.37
		c-11.86-18.75-31.58-29.86-52.23-30.75c8.05-19.04,6.46-41.62-5.4-60.37c-9.43-14.92-23.83-24.92-39.59-28.9l14.58-9.22
		C685.78,464.16,693.96,424.48,674.8,394.19z M413.4,353.96c2.42-11.76,9.29-21.73,19.33-28.08c10.04-6.35,22-8.28,33.66-5.43
		c11.66,2.85,21.71,10.15,28.3,20.57c6.59,10.42,8.88,22.63,6.46,34.39l-12.18,59.11l-0.29,0.18l-0.92,0.58l-0.92,0.58l-0.92,0.58
		l-0.92,0.58l-0.92,0.58l-0.92,0.58l-0.92,0.58l-0.92,0.58l-0.92,0.58l-0.92,0.58l-0.92,0.58l-0.92,0.58l-0.92,0.58l-0.92,0.58
		l-0.92,0.58l-0.92,0.58l-0.92,0.58l-0.92,0.58l-0.92,0.58l-0.92,0.58l-0.92,0.58l-0.92,0.58l-0.92,0.58l-0.92,0.58l-0.92,0.58
		l-0.92,0.58l-0.92,0.58l-0.92,0.58l-0.92,0.58l-0.92,0.58l-0.92,0.58l-0.92,0.58l-0.92,0.58l-0.92,0.58l-0.92,0.58l-0.92,0.58
		l-0.92,0.58l-0.92,0.58l-0.92,0.58l-0.92,0.58l-0.92,0.58l-0.92,0.58l-0.92,0.58l-0.92,0.58l-0.92,0.58l-0.92,0.58l-0.92,0.58
		l-0.92,0.58l-0.92,0.58l-0.92,0.58l-0.92,0.58l-0.92,0.58l-0.92,0.58l-0.92,0.58l-0.92,0.58l-0.92,0.58l-0.92,0.58l-0.92,0.58
		l-0.92,0.58l-0.92,0.58l-0.92,0.58l-0.92,0.58l-0.92,0.58L430,471.8l-0.92,0.58l-0.92,0.58l-0.92,0.58l-0.92,0.58l-0.92,0.58
		l-0.92,0.58l-0.92,0.58l-0.92,0.58l-0.92,0.58l-0.92,0.58l-0.92,0.58l-0.92,0.58l-0.92,0.58l-0.92,0.58l-0.92,0.58l-0.92,0.58
		l-0.92,0.58l-0.92,0.58l-0.92,0.58l-0.92,0.58l-0.92,0.58l-0.92,0.58l-0.92,0.58l-0.92,0.58l-0.92,0.58l-0.92,0.58l-0.92,0.58
		l-0.92,0.58l-0.92,0.58l-0.92,0.58l-0.92,0.58l-0.92,0.58l-0.92,0.58l-0.92,0.58l-0.92,0.58l-0.92,0.58l-0.92,0.58l-0.92,0.58
		l-0.92,0.58l-0.92,0.58l-0.92,0.58l-0.92,0.58l-0.92,0.58l-0.92,0.58l-0.92,0.58l-0.92,0.58l-0.92,0.58l-0.92,0.58l-0.92,0.58
		l-0.92,0.58l-0.92,0.58l-0.25,0.16L413.4,353.96z M608.25,490.62l-0.52,0.33l-0.52,0.33l-0.52,0.33l-0.52,0.33l-0.52,0.33
		l-0.52,0.33l-0.52,0.33l-0.52,0.33l-0.52,0.33l-0.52,0.33l-0.52,0.33l-0.52,0.33l-0.52,0.33l-0.52,0.33l-0.52,0.33l-0.52,0.33
		l-0.52,0.33l-0.52,0.33l-0.52,0.33l-0.52,0.33l-0.52,0.33l-0.52,0.33l-0.52,0.33l-0.52,0.33l-0.52,0.33l-0.52,0.33l-0.52,0.33
		l-0.52,0.33l-0.52,0.33l-0.52,0.33l-0.52,0.33l-0.52,0.33l-0.52,0.33l-0.52,0.33l-0.52,0.33l-0.52,0.33l-0.52,0.33l-0.52,0.33
		l-0.52,0.33l-0.52,0.33l-0.52,0.33l-0.52,0.33l-0.52,0.33l-0.52,0.33l-0.52,0.33l-0.52,0.33l-0.52,0.33l-0.52,0.33l-0.52,0.33
		l-0.52,0.33l-0.52,0.33l-0.52,0.33l-0.52,0.33l-0.52,0.33l-0.52,0.33l-0.52,0.33l-0.52,0.33l-0.52,0.33l-0.52,0.33l-0.52,0.33
		l-0.52,0.33l-0.52,0.33l-0.52,0.33l-0.52,0.33l-0.52,0.33l-0.52,0.33l-0.52,0.33l-0.52,0.33l-0.52,0.33l-0.52,0.33l-0.52,0.33
		l-0.52,0.33l-0.52,0.33l-0.52,0.33l-0.52,0.33l-0.52,0.33l-0.52,0.33l-0.52,0.33l-0.52,0.33l-0.52,0.33l-0.52,0.33l-0.52,0.33
		l-0.52,0.33l-0.52,0.33l-0.52,0.33l-0.52,0.33l-0.52,0.33l-0.52,0.33l-0.52,0.33l-0.52,0.33l-0.52,0.33l-0.52,0.33l-0.52,0.33
		l-0.52,0.33l-0.52,0.33l-0.52,0.33l-0.52,0.33l-0.52,0.33l-0.52,0.33l-0.52,0.33l-0.52,0.33l-0.52,0.33l-0.52,0.33l-0.52,0.33
		l-0.52,0.33l-0.52,0.33l-0.52,0.33l-0.52,0.33l-0.52,0.33l-0.52,0.33l-0.52,0.33l-0.52,0.33l-0.52,0.33l-0.52,0.33l-0.52,0.33
		l-0.52,0.33l-0.52,0.33l-0.52,0.33l-0.52,0.33l-0.52,0.33l-0.52,0.33l-0.52,0.33l-0.52,0.33l-0.52,0.33l-0.52,0.33l-0.52,0.33
		l-0.52,0.33l-0.52,0.33l-0.52,0.33l-0.52,0.33l-0.52,0.33l-0.52,0.33l-0.52,0.33l-0.52,0.33l-0.52,0.33l-0.52,0.33l-0.52,0.33
		l-0.52,0.33l-0.52,0.33l-0.1,0.06l-0.43,0.27l-0.52,0.33l-0.52,0.33l-0.52,0.33l-0.52,0.33l-0.52,0.33l-0.52,0.33l-0.52,0.33
		l-0.52,0.33l-0.52,0.33l-0.52,0.33l-0.52,0.33l-0.52,0.33l-0.52,0.33l-0.52,0.33l10.17,16.08l0.52-0.33l0.52-0.33l0.52-0.33
		l0.52-0.33l0.52-0.33l0.52-0.33l0.52-0.33l0.52-0.33l0.52-0.33l0.52-0.33l0.52-0.33l0.52-0.33l0.52-0.33l0.52-0.33l0.43-0.27
		l0.1-0.06l0.52-0.33l0.52-0.33l0.52-0.33l0.52-0.33l0.52-0.33l0.52-0.33l0.52-0.33l0.52-0.33l0.52-0.33l0.52-0.33l0.52-0.33
		l0.52-0.33l0.52-0.33l0.52-0.33l0.52-0.33l0.52-0.33l0.52-0.33l0.52-0.33l0.52-0.33l0.52-0.33l0.52-0.33l0.52-0.33l0.52-0.33
		l0.52-0.33l0.52-0.33l0.52-0.33l0.52-0.33l0.52-0.33l0.52-0.33l0.52-0.33l0.52-0.33l0.52-0.33l0.52-0.33l0.52-0.33l0.52-0.33
		l0.52-0.33l0.52-0.33l0.52-0.33l0.52-0.33l0.52-0.33l0.52-0.33l0.52-0.33l0.52-0.33l0.52-0.33l0.52-0.33l0.52-0.33l0.52-0.33
		l0.52-0.33l0.52-0.33l0.52-0.33l0.52-0.33l0.52-0.33l0.52-0.33l0.52-0.33l0.52-0.33l0.52-0.33l0.52-0.33l0.52-0.33l0.52-0.33
		l0.52-0.33l0.52-0.33l0.52-0.33l0.52-0.33l0.52-0.33l0.52-0.33l0.52-0.33l0.52-0.33l0.52-0.33l0.52-0.33l0.52-0.33l0.52-0.33
		l0.52-0.33l0.52-0.33l0.52-0.33l0.52-0.33l0.52-0.33l0.52-0.33l0.52-0.33l0.52-0.33l0.52-0.33l0.52-0.33l0.52-0.33l0.52-0.33
		l0.52-0.33l0.52-0.33l0.52-0.33l0.52-0.33l0.52-0.33l0.52-0.33l0.52-0.33l0.52-0.33l0.52-0.33l0.52-0.33l0.52-0.33l0.52-0.33
		l0.52-0.33l0.52-0.33l0.52-0.33l0.52-0.33l0.52-0.33l0.52-0.33l0.52-0.33l0.52-0.33l0.52-0.33l0.52-0.33l0.52-0.33l0.52-0.33
		l0.52-0.33l0.52-0.33l0.52-0.33l0.52-0.33l0.52-0.33l0.52-0.33l0.52-0.33l0.52-0.33l0.52-0.33l0.52-0.33l0.52-0.33l0.52-0.33
		l0.52-0.33l0.1-0.06c20.33-9.64,45.04-2.07,57.5,17.63c10.74,16.98,9.25,39.29-3.27,54.07l-0.17,0.11l-0.52,0.33l-0.52,0.33
		l-0.52,0.33l-0.52,0.33l-0.52,0.33l-0.52,0.33l-0.52,0.33l-0.52,0.33l-0.52,0.33l-0.52,0.33l-0.52,0.33l-0.52,0.33l-0.52,0.33
		l-0.52,0.33l-0.52,0.33l-0.52,0.33l-0.52,0.33l-0.52,0.33l-0.52,0.33l-0.52,0.33l-0.52,0.33l-0.52,0.33l-0.52,0.33l-0.52,0.33
		l-0.52,0.33l-0.52,0.33l-0.52,0.33l-0.52,0.33l-0.52,0.33l-0.52,0.33l-0.52,0.33l-0.52,0.33l-0.52,0.33l-0.52,0.33l-0.52,0.33
		l-0.52,0.33l-0.52,0.33l-0.52,0.33l-0.52,0.33l-0.52,0.33l-0.52,0.33l-0.52,0.33l-0.52,0.33l-0.52,0.33l-0.52,0.33l-0.52,0.33
		l-0.52,0.33l-0.52,0.33l-0.52,0.33l-0.52,0.33l-0.52,0.33l-0.52,0.33l-0.52,0.33l-0.52,0.33l-0.52,0.33l-0.52,0.33l-0.52,0.33
		l-0.52,0.33l-0.52,0.33l-0.52,0.33l-0.52,0.33l-0.52,0.33l-0.52,0.33l-0.52,0.33l-0.52,0.33l-0.52,0.33l-0.52,0.33l-0.52,0.33
		l-0.52,0.33l-0.52,0.33l-0.52,0.33l-0.52,0.33l-0.52,0.33l-0.52,0.33l-0.52,0.33l-0.52,0.33l-0.52,0.33l-0.52,0.33l-0.52,0.33
		l-0.52,0.33l-0.52,0.33l-0.52,0.33l-0.52,0.33l-0.52,0.33l-0.52,0.33l-0.52,0.33l-0.52,0.33l-0.52,0.33l-0.52,0.33l-0.52,0.33
		l-0.52,0.33l-0.52,0.33l-0.52,0.33l-0.52,0.33l-0.52,0.33l-0.52,0.33l-0.52,0.33l-0.52,0.33l-0.52,0.33l-0.52,0.33l-0.52,0.33
		l-0.52,0.33l-0.52,0.33l-0.52,0.33l-0.52,0.33l-0.52,0.33l-0.52,0.33l-0.52,0.33l-0.52,0.33l-0.52,0.33l-0.52,0.33l-0.52,0.33
		l-0.52,0.33l-0.52,0.33l-0.52,0.33l-0.52,0.33l-0.52,0.33l-0.52,0.33l-0.52,0.33l-0.52,0.33l-0.52,0.33l-0.52,0.33l-0.52,0.33
		l-0.52,0.33l-0.52,0.33l-0.52,0.33l-0.52,0.33l-0.52,0.33l-0.52,0.33l-0.52,0.33l-0.52,0.33l-0.52,0.33l-0.1,0.06l-0.43,0.27
		l-0.52,0.33L592,629.4l-0.52,0.33l-0.52,0.33l-0.52,0.33l-0.52,0.33l-0.52,0.33l-0.52,0.33l-0.52,0.33l-0.52,0.33l-0.52,0.33
		l-0.52,0.33l-0.52,0.33l-0.52,0.33l10.17,16.08l0.52-0.33l0.52-0.33l0.52-0.33l0.52-0.33l0.52-0.33l0.52-0.33l0.52-0.33l0.52-0.33
		l0.52-0.33l0.52-0.33l0.52-0.33l0.52-0.33l0.52-0.33l0.52-0.33l0.43-0.27l0.1-0.06l0.52-0.33l0.52-0.33l0.52-0.33l0.52-0.33
		l0.52-0.33l0.52-0.33l0.52-0.33l0.52-0.33l0.52-0.33l0.52-0.33l0.52-0.33l0.52-0.33l0.52-0.33l0.52-0.33l0.52-0.33l0.52-0.33
		l0.52-0.33l0.52-0.33l0.52-0.33l0.52-0.33l0.52-0.33l0.52-0.33l0.52-0.33l0.52-0.33l0.52-0.33l0.52-0.33l0.52-0.33l0.52-0.33
		l0.52-0.33l0.52-0.33l0.52-0.33l0.52-0.33l0.52-0.33l0.52-0.33l0.52-0.33l0.52-0.33l0.52-0.33l0.52-0.33l0.52-0.33l0.52-0.33
		l0.52-0.33l0.52-0.33l0.52-0.33l0.52-0.33l0.52-0.33l0.52-0.33l0.52-0.33l0.52-0.33l0.52-0.33l0.52-0.33l0.52-0.33l0.52-0.33
		l0.52-0.33l0.52-0.33l0.52-0.33l0.52-0.33l0.52-0.33l0.52-0.33l0.52-0.33l0.52-0.33l0.52-0.33l0.52-0.33l0.52-0.33l0.52-0.33
		l0.52-0.33l0.52-0.33l0.52-0.33l0.52-0.33l0.52-0.33l0.52-0.33l0.52-0.33l0.52-0.33l0.52-0.33l0.52-0.33l0.52-0.33l0.52-0.33
		l0.52-0.33l0.52-0.33l0.52-0.33l0.52-0.33l0.52-0.33l0.52-0.33l0.52-0.33l0.52-0.33l0.52-0.33l0.52-0.33l0.52-0.33l0.52-0.33
		l0.52-0.33l0.52-0.33l0.52-0.33l0.52-0.33l0.52-0.33l0.52-0.33l0.52-0.33l0.52-0.33l0.52-0.33l0.52-0.33l0.52-0.33l0.52-0.33
		l0.52-0.33l0.52-0.33l0.52-0.33l0.52-0.33l0.52-0.33l0.52-0.33l0.52-0.33l0.52-0.33l0.52-0.33l0.52-0.33l0.52-0.33l0.52-0.33
		l0.52-0.33l0.52-0.33l0.52-0.33l0.52-0.33l0.52-0.33l0.52-0.33l0.52-0.33l0.52-0.33l0.52-0.33l0.52-0.33l0.52-0.33l0.52-0.33
		l0.52-0.33l0.52-0.33l0.52-0.33l0.15-0.1l0.71-0.23c19.31-6.38,41.45,1.84,52.64,19.54c10.92,17.26,9.47,39.12-3.26,54.06
		l-0.18,0.11l-0.52,0.33l-0.52,0.33l-0.52,0.33l-0.52,0.33l-0.52,0.33l-0.52,0.33l-0.52,0.33l-0.52,0.33l-0.52,0.33l-0.52,0.33
		l-0.52,0.33l-0.52,0.33l-0.52,0.33l-0.52,0.33l-0.52,0.33l-0.52,0.33l-0.52,0.33l-0.52,0.33l-0.52,0.33l-0.52,0.33l-0.52,0.33
		l-0.52,0.33l-0.52,0.33l-0.52,0.33l-0.52,0.33l-0.52,0.33l-0.52,0.33l-0.52,0.33l-0.52,0.33l-0.52,0.33l-0.52,0.33l-0.52,0.33
		l-0.52,0.33l-0.52,0.33l-0.52,0.33l-0.52,0.33l-0.52,0.33l-0.52,0.33l-0.52,0.33l-0.52,0.33l-0.52,0.33l-0.52,0.33l-0.52,0.33
		l-0.52,0.33l-0.52,0.33l-0.52,0.33l-0.52,0.33l-0.52,0.33l-0.52,0.33l-0.52,0.33l-0.52,0.33l-0.52,0.33l-0.52,0.33l-0.52,0.33
		l-0.52,0.33l-0.52,0.33l-0.52,0.33l-0.52,0.33l-0.52,0.33l-0.52,0.33l-0.52,0.33l-0.52,0.33l-0.52,0.33l-0.52,0.33l-0.52,0.33
		l-0.52,0.33l-0.52,0.33l-0.52,0.33l-0.52,0.33l-0.52,0.33l-0.52,0.33l-0.52,0.33l-0.52,0.33l-0.52,0.33l-0.52,0.33L680.5,701
		l-0.52,0.33l-0.52,0.33l-0.52,0.33l-0.52,0.33l-0.52,0.33l-0.52,0.33l-0.52,0.33l-0.52,0.33l-0.52,0.33l-0.52,0.33l-0.52,0.33
		l-0.52,0.33l-0.52,0.33l-0.52,0.33l-0.52,0.33l-0.52,0.33l-0.52,0.33l-0.52,0.33l-0.52,0.33l-0.52,0.33l-0.52,0.33l-0.52,0.33
		l-0.52,0.33l-0.52,0.33l-0.52,0.33l-0.52,0.33l-0.52,0.33l-0.52,0.33l-0.52,0.33l-0.52,0.33l-0.52,0.33l-0.52,0.33l-0.52,0.33
		l-0.52,0.33l-0.52,0.33l-0.52,0.33l-0.52,0.33l-0.52,0.33l-0.52,0.33l-0.52,0.33l-0.52,0.33l-0.52,0.33l-0.52,0.33l-0.52,0.33
		l-0.52,0.33l-0.52,0.33l-0.52,0.33l-0.52,0.33l-0.52,0.33l-0.52,0.33l-0.52,0.33l-0.52,0.33l-0.52,0.33l-0.52,0.33l-0.52,0.33
		l-0.52,0.33l-0.1,0.06l-0.43,0.27l-0.52,0.33l-0.52,0.33l-0.52,0.33l-0.52,0.33l-0.52,0.33l-0.52,0.33l-0.52,0.33l-0.52,0.33
		l-0.52,0.33l-0.52,0.33l-0.52,0.33l-0.52,0.33l-0.52,0.33l-0.52,0.33l10.17,16.08l0.52-0.33l0.52-0.33l0.52-0.33l0.52-0.33
		l0.52-0.33l0.52-0.33l0.52-0.33l0.52-0.33l0.52-0.33l0.52-0.33l0.52-0.33l0.52-0.33l0.52-0.33l0.52-0.33l0.43-0.27l0.1-0.06
		l0.52-0.33l0.52-0.33l0.52-0.33l0.52-0.33l0.52-0.33l0.52-0.33l0.52-0.33l0.52-0.33l0.52-0.33l0.52-0.33l0.52-0.33l0.52-0.33
		l0.52-0.33l0.52-0.33l0.52-0.33l0.52-0.33l0.52-0.33l0.52-0.33l0.52-0.33l0.52-0.33l0.52-0.33l0.52-0.33l0.52-0.33l0.52-0.33
		l0.52-0.33l0.52-0.33l0.52-0.33l0.52-0.33l0.52-0.33l0.52-0.33l0.52-0.33l0.52-0.33l0.52-0.33l0.52-0.33l0.52-0.33l0.52-0.33
		l0.52-0.33l0.52-0.33l0.52-0.33l0.52-0.33l0.52-0.33l0.52-0.33l0.52-0.33l0.52-0.33l0.52-0.33l0.52-0.33l0.52-0.33l0.52-0.33
		l0.52-0.33l0.52-0.33l0.52-0.33l0.52-0.33l0.52-0.33l0.52-0.33l0.52-0.33l0.52-0.33l0.52-0.33l0.52-0.33l0.52-0.33l0.52-0.33
		l0.52-0.33l0.52-0.33l0.52-0.33l0.52-0.33l0.52-0.33l0.52-0.33l0.52-0.33l0.52-0.33l0.52-0.33l0.52-0.33l0.52-0.33l0.52-0.33
		l0.52-0.33l0.52-0.33l0.52-0.33l0.52-0.33l0.52-0.33l0.52-0.33l0.52-0.33l0.52-0.33l0.52-0.33l0.52-0.33l0.52-0.33l0.52-0.33
		l0.52-0.33l0.52-0.33l0.52-0.33l0.52-0.33l0.52-0.33l0.52-0.33l0.52-0.33l0.52-0.33l0.52-0.33l0.52-0.33l0.52-0.33l0.52-0.33
		l0.52-0.33l0.52-0.33l0.52-0.33l0.52-0.33l0.52-0.33l0.52-0.33l0.52-0.33l0.52-0.33l0.52-0.33l0.52-0.33l0.52-0.33l0.52-0.33
		l0.52-0.33l0.52-0.33l0.52-0.33l0.52-0.33l0.52-0.33l0.52-0.33l0.52-0.33l0.52-0.33l0.52-0.33l0.52-0.33l0.52-0.33l0.52-0.33
		l0.52-0.33l0.52-0.33l0.52-0.33l0.52-0.33l0.52-0.33l0.52-0.33l0.52-0.33l0.16-0.1l0.71-0.23c19.62-6.48,41.27,1.55,52.65,19.55
		c13.55,21.43,7.77,49.49-12.89,62.56L636.64,858.7c-1.83,1.16-3.92,2.22-6.38,3.25l-63.17,39.8
		c-104.73,66.23-239.98,41-301.48-56.26S239.27,615.22,344,548.99l36.7-23.21l-0.01-0.29l0.8-0.5l0.92-0.58l0.92-0.58l0.92-0.58
		l0.92-0.58l0.92-0.58l0.92-0.58l0.92-0.58l0.92-0.58l0.92-0.58l0.92-0.58l0.92-0.58l0.92-0.58l0.92-0.58l0.92-0.58l0.92-0.58
		l0.92-0.58l0.92-0.58l0.92-0.58l0.92-0.58l0.92-0.58l0.92-0.58l0.92-0.58l0.92-0.58l0.92-0.58l0.92-0.58l0.92-0.58l0.92-0.58
		l0.92-0.58l0.92-0.58l0.92-0.58l0.92-0.58l0.92-0.58l0.92-0.58l0.92-0.58l0.92-0.58l0.92-0.58l0.92-0.58l0.92-0.58l0.92-0.58
		l0.92-0.58l0.92-0.58l0.92-0.58l0.92-0.58l0.92-0.58l0.92-0.58l0.92-0.58l0.92-0.58l0.92-0.58l0.92-0.58l0.92-0.58l0.92-0.58
		l0.92-0.58l0.92-0.58l0.92-0.58l0.92-0.58l0.92-0.58l0.92-0.58l0.92-0.58l0.92-0.58l0.92-0.58l0.92-0.58l0.92-0.58l0.92-0.58
		l0.92-0.58l0.92-0.58l0.92-0.58l0.92-0.58l0.92-0.58l0.92-0.58l0.92-0.58l0.92-0.58l0.92-0.58l0.92-0.58l0.92-0.58l0.92-0.58
		l0.92-0.58l0.92-0.58l0.92-0.58l0.92-0.58l0.92-0.58l0.92-0.58l0.92-0.58l0.92-0.58l0.92-0.58l0.92-0.58l0.92-0.58l0.92-0.58
		l0.92-0.58l0.92-0.58l0.92-0.58l0.92-0.58l0.92-0.58l0.92-0.58l0.92-0.58l0.92-0.58l0.92-0.58l0.92-0.58l0.92-0.58l0.92-0.58
		l0.92-0.58l0.92-0.58l0.92-0.58l0.92-0.58l0.92-0.58l0.92-0.58l0.92-0.58l0.92-0.58l0.92-0.58l0.92-0.58l0.92-0.58l0.92-0.58
		l0.37-0.23l-0.07,0.34l113.69-71.9c20.66-13.07,48.49-6.26,62.05,15.16c13.55,21.43,7.76,49.49-12.9,62.55l-37.6,23.78l-0.03-0.04
		L608.25,490.62z"/>
	<linearGradient id="SVGID_4_" gradientUnits="userSpaceOnUse" x1="454.6712" y1="166.8653" x2="680.5466" y2="166.8653">
		<stop  offset="6.768599e-03" style="stop-color:#42B0FF"/>
		<stop  offset="1" style="stop-color:#5CD1FF"/>
	</linearGradient>
	<path class="st5" d="M567.56,110.36c-29.24-69.61-112.34-53.37-112.88,27.42c-0.3,44.37,39.57,60.96,66.12,78.7
		c25.74,17.2,44.07,40.74,46.94,50.75c2.46-9.82,22.86-34.01,46.7-51.23c26.05-18.83,66.42-34.32,66.12-78.7
		C680,56.31,595.45,43.53,567.56,110.36L567.56,110.36z M567.56,110.36"/>
</g>
</svg>
