<?xml version="1.0" encoding="utf-8"?>
<!-- Generator: Adobe Illustrator 23.0.0, SVG Export Plug-In . SVG Version: 6.00 Build 0)  -->
<svg version="1.1" id="图层_1" xmlns="http://www.w3.org/2000/svg" xmlns:xlink="http://www.w3.org/1999/xlink" x="0px" y="0px"
	 viewBox="0 0 1024 1024" style="enable-background:new 0 0 1024 1024;" xml:space="preserve">
<style type="text/css">
	.st0{fill:none;stroke:url(#SVGID_1_);stroke-width:5;stroke-miterlimit:10;}
	.st1{fill:url(#SVGID_2_);}
	.st2{fill:#FFFFFF;}
	.st3{fill:#4F46A3;}
	.st4{fill:url(#SVGID_3_);}
	.st5{fill:url(#SVGID_4_);}
	.st6{fill:url(#SVGID_5_);}
	.st7{fill:url(#SVGID_6_);}
	.st8{fill:url(#SVGID_7_);}
</style>
<g>
	<radialGradient id="SVGID_1_" cx="505.8835" cy="547" r="0" gradientUnits="userSpaceOnUse">
		<stop  offset="0" style="stop-color:#FFB300"/>
		<stop  offset="0.4946" style="stop-color:#FFE600"/>
		<stop  offset="1" style="stop-color:#FF9F00"/>
	</radialGradient>
	<path class="st0" d="M505.88,547"/>
</g>
<g>
	<g>
		<linearGradient id="SVGID_2_" gradientUnits="userSpaceOnUse" x1="441.8835" y1="416" x2="441.8835" y2="416">
			<stop  offset="0" style="stop-color:#21D4FD"/>
			<stop  offset="1" style="stop-color:#B721FF"/>
		</linearGradient>
		<path class="st1" d="M441.88,416"/>
	</g>
</g>
<path class="st2" d="M419.8,379.42l-1.15,1.98c1.49-0.52,2.94-1.18,4.36-1.98H419.8z"/>
<g>
	<path class="st2" d="M484,450.51h14.75l-18.03-31.23l-11.34,19.64C475.84,440.36,481.2,444.7,484,450.51z"/>
	<path class="st2" d="M467.09,442.9l-4.39,7.61h16.34C476.4,446.46,472.09,443.59,467.09,442.9z"/>
</g>
<g>
	<path class="st3" d="M453.31,567.7"/>
</g>
<g>
	<g>
		<g>
			
				<linearGradient id="SVGID_3_" gradientUnits="userSpaceOnUse" x1="1457.1821" y1="140.0258" x2="1733.7933" y2="140.0258" gradientTransform="matrix(0.6078 0.1679 -0.3369 1.2197 -96.5244 54.6285)">
				<stop  offset="0" style="stop-color:#56FCFF"/>
				<stop  offset="0.2957" style="stop-color:#78C5FE"/>
				<stop  offset="0.6222" style="stop-color:#998FFD"/>
				<stop  offset="0.867" style="stop-color:#AE6EFC"/>
				<stop  offset="1" style="stop-color:#B661FC"/>
			</linearGradient>
			<path class="st4" d="M904.93,505.19c-52.06-8.83-101.93-22.57-145.86-57.71c-8.9-7.12-21.8,22.79-12.87,29.94
				c45.16,36.13,96.22,50.95,149.81,60.05C906.61,539.26,915.58,506.99,904.93,505.19L904.93,505.19z"/>
		</g>
		<g>
			
				<linearGradient id="SVGID_4_" gradientUnits="userSpaceOnUse" x1="1476.3308" y1="263.5535" x2="1712.6077" y2="263.5535" gradientTransform="matrix(0.6052 0.1672 -0.2973 1.076 -92.7905 39.358)">
				<stop  offset="0" style="stop-color:#56FCFF"/>
				<stop  offset="0.2957" style="stop-color:#78C5FE"/>
				<stop  offset="0.6222" style="stop-color:#998FFD"/>
				<stop  offset="0.867" style="stop-color:#AE6EFC"/>
				<stop  offset="1" style="stop-color:#B661FC"/>
			</linearGradient>
			<path class="st5" d="M859.74,599.52c-43.2-7.82-83.51-23.83-121.31-48.82c-9.17-6.06-21.07,20.18-11.84,26.28
				c39.06,25.81,80.6,42.92,125.29,51.01C862.39,629.89,870.32,601.43,859.74,599.52L859.74,599.52z"/>
		</g>
		<g>
			
				<linearGradient id="SVGID_5_" gradientUnits="userSpaceOnUse" x1="1471.2408" y1="360.6791" x2="1679.1222" y2="360.6791" gradientTransform="matrix(0.6052 0.1672 -0.2794 1.0112 -91.1304 33.3487)">
				<stop  offset="0" style="stop-color:#56FCFF"/>
				<stop  offset="0.2957" style="stop-color:#78C5FE"/>
				<stop  offset="0.6222" style="stop-color:#998FFD"/>
				<stop  offset="0.867" style="stop-color:#AE6EFC"/>
				<stop  offset="1" style="stop-color:#B661FC"/>
			</linearGradient>
			<path class="st6" d="M814.34,675.78c-39.39-1-68.76-28.62-98.34-56.76c-8.38-7.98-19.73,16.68-11.38,24.63
				c32.35,30.79,64.02,58.02,106.85,59.12C822.33,703.03,825.13,676.06,814.34,675.78L814.34,675.78z"/>
		</g>
	</g>
	<linearGradient id="SVGID_6_" gradientUnits="userSpaceOnUse" x1="76.9598" y1="512" x2="947.0402" y2="512">
		<stop  offset="0" style="stop-color:#56FCFF"/>
		<stop  offset="0.2957" style="stop-color:#78C5FE"/>
		<stop  offset="0.6222" style="stop-color:#998FFD"/>
		<stop  offset="0.867" style="stop-color:#AE6EFC"/>
		<stop  offset="1" style="stop-color:#B661FC"/>
	</linearGradient>
	<path class="st7" d="M947.04,458.97c0-60.99-49.73-110.38-110.9-110.38l-16.29,0.17c-108.65,0-155.26-14.21-162.19-20.27
		c0-9.71,0.52-20.8,1.56-34.66c0.69-6.07,1.56-12.31,2.42-18.02c1.39-9.53,2.95-19.58,3.81-29.11
		c5.72-69.83-7.62-127.71-36.39-159.08c-12.82-13.86-27.72-21.14-43.32-21.14c-0.52,0-48.69,0.34-70.53,24.78
		c-8.32,9.35-12.13,20.97-10.74,33.44c0.35,3.12,8.32,75.2-8.49,131.17c-23.74,43.49-89.93,118.53-140.53,165.48l-5.2-17.67
		c-1.73-5.55-5.55-10.57-10.91-13.52c-5.38-2.77-11.61-3.46-17.15-1.73L93.11,456.03c-11.95,3.46-18.71,16.12-15.25,27.9
		l134.81,457.29c2.77,9.53,11.61,16.29,21.49,16.29c2.07,0,4.16-0.35,6.41-0.87l229.08-67.41c5.72-1.56,10.57-5.55,13.34-10.74
		c2.77-5.2,3.47-11.44,1.91-17.15L455.44,759.1c20.62-2.25,52.16-3.29,96.18,0.52l59.26,5.02c38.82,3.29,75.38,6.42,98.43,9.36
		c10.57,1.21,19.93,1.9,28.76,1.9c49.21,0,82.48-16.8,94.09-47.48c1.39-3.98,2.77-8.31,3.81-12.82
		c30.5-15.77,50.59-46.27,52.5-79.71c0.17-2.77,0.34-5.38,0.17-7.98c21.14-17.15,33.96-42.1,35.35-68.79
		c0.69-9.88-0.35-19.75-2.95-29.63C938.03,509.57,947.04,485.14,947.04,458.97z M880.33,507.15c-7.28,6.41-9.35,16.8-5.54,25.64
		c3.29,7.63,4.85,15.6,4.33,23.57c-0.86,16.98-10.39,32.23-25.47,41.06c-8.14,4.86-12.65,14.21-10.74,23.57
		c0.87,4.51,1.04,7.97,0.69,11.78c-1.04,20.62-14.9,38.64-35.17,45.75c-8.14,2.77-13.86,10.22-14.9,18.88
		c-0.52,5.38-1.73,10.4-3.64,15.6c-5.03,13.35-30.15,18.02-51.81,18.02c-6.94,0-14.56-0.52-23.05-1.56
		c-23.05-2.95-57.88-5.89-98.25-9.35l-61.17-5.38c-21.49-1.9-41.24-2.94-58.74-2.94c-19.76,0-37.95,1.21-54.24,3.29l-72.61-246.23
		c56.15-48.69,137.41-139.32,167.57-195.63l0.17-0.7c19.41-62.55,13.69-135.33,11.96-152.48c3.46-3.29,22.36-8.84,36.22-8.84
		c2.08,0,6.07,2.08,10.22,6.76c15.43,16.81,29.98,58.22,24.78,124.76c-0.69,8.31-2.08,17.84-3.46,26.16l-0.34,2.25
		c-0.87,5.55-1.74,11.26-2.43,17.85c-1.21,15.77-1.9,28.94-1.9,39.85c-0.17,7.45,1.73,18.37,11.78,28.77
		c28.94,29.63,122.16,35.87,195.46,35.87c8.49,0,14.55-0.18,16.8-0.18c36.04,0,65.33,29.28,65.33,65.5
		C901.99,477.17,894.36,494.32,880.33,507.15z"/>
	<linearGradient id="SVGID_7_" gradientUnits="userSpaceOnUse" x1="129.3727" y1="675.0494" x2="437.2926" y2="675.0494">
		<stop  offset="0" style="stop-color:#56FCFF"/>
		<stop  offset="0.2957" style="stop-color:#78C5FE"/>
		<stop  offset="0.6222" style="stop-color:#998FFD"/>
		<stop  offset="0.867" style="stop-color:#AE6EFC"/>
		<stop  offset="1" style="stop-color:#B661FC"/>
	</linearGradient>
	<path class="st8" d="M322.06,472.05l82.13,278.63c1.04,3.47,2.77,6.41,5.02,8.83l28.07,95.31l-185.93,54.76L129.37,495.44
		l185.76-54.93l6.24,21.31C320.85,465.12,321.02,468.58,322.06,472.05L322.06,472.05z"/>
</g>
</svg>
