<?xml version="1.0" encoding="utf-8"?>
<!-- Generator: Adobe Illustrator 23.0.0, SVG Export Plug-In . SVG Version: 6.00 Build 0)  -->
<svg version="1.1" id="图层_1" xmlns="http://www.w3.org/2000/svg" xmlns:xlink="http://www.w3.org/1999/xlink" x="0px" y="0px"
	 viewBox="0 0 1024 1024" style="enable-background:new 0 0 1024 1024;" xml:space="preserve">
<style type="text/css">
	.st0{fill:none;stroke:url(#SVGID_1_);stroke-width:5;stroke-miterlimit:10;}
	.st1{fill:url(#SVGID_2_);}
	.st2{fill:#FFFFFF;}
	.st3{fill:#4F46A3;}
	.st4{fill:url(#SVGID_3_);}
	.st5{fill:none;}
	.st6{fill:#2F0F41;}
	.st7{fill:url(#SVGID_4_);}
	.st8{fill:url(#SVGID_5_);}
	.st9{fill:url(#SVGID_6_);}
	.st10{fill:url(#SVGID_7_);}
	.st11{fill:url(#SVGID_8_);}
	.st12{fill:url(#SVGID_9_);}
	.st13{fill:url(#SVGID_10_);}
	.st14{fill:url(#SVGID_11_);}
	.st15{fill:url(#SVGID_12_);}
</style>
<g>
	<radialGradient id="SVGID_1_" cx="505.8835" cy="547" r="0" gradientUnits="userSpaceOnUse">
		<stop  offset="0" style="stop-color:#FFB300"/>
		<stop  offset="0.4946" style="stop-color:#FFE600"/>
		<stop  offset="1" style="stop-color:#FF9F00"/>
	</radialGradient>
	<path class="st0" d="M505.88,547"/>
</g>
<g>
	<g>
		<linearGradient id="SVGID_2_" gradientUnits="userSpaceOnUse" x1="441.8835" y1="416" x2="441.8835" y2="416">
			<stop  offset="0" style="stop-color:#21D4FD"/>
			<stop  offset="1" style="stop-color:#B721FF"/>
		</linearGradient>
		<path class="st1" d="M441.88,416"/>
	</g>
</g>
<path class="st2" d="M419.8,379.42l-1.15,1.98c1.49-0.52,2.94-1.18,4.36-1.98H419.8z"/>
<g>
	<path class="st2" d="M484,450.51h14.75l-18.03-31.23l-11.34,19.64C475.84,440.36,481.2,444.7,484,450.51z"/>
	<path class="st2" d="M467.09,442.9l-4.39,7.61h16.34C476.4,446.46,472.09,443.59,467.09,442.9z"/>
</g>
<g>
	<path class="st3" d="M453.31,567.7"/>
</g>
<g>
	<linearGradient id="SVGID_3_" gradientUnits="userSpaceOnUse" x1="116.0699" y1="683.1507" x2="475.6023" y2="683.1507">
		<stop  offset="0" style="stop-color:#56FCFF"/>
		<stop  offset="0.2957" style="stop-color:#78C5FE"/>
		<stop  offset="0.6222" style="stop-color:#998FFD"/>
		<stop  offset="0.867" style="stop-color:#AE6EFC"/>
		<stop  offset="1" style="stop-color:#B661FC"/>
	</linearGradient>
	<path class="st4" d="M471.6,680.05c-25.48-11.78-43.25-37.51-43.25-67.38c0-29.87,17.76-55.61,43.24-67.38
		c-25.48-11.78-43.24-37.51-43.24-67.38c0-8.89,1.65-17.38,4.53-25.29c7.29-20.03,22.92-36.04,42.72-43.81
		c-20.88,5.5-53.48,16.78-94.82,39.76c-11.8,6.56-24.31,14.08-37.45,22.68c-6.41,15.48-20.17,25.82-35.68,28.55
		c-1.85,0.33-3.71,0.56-5.59,0.66c-6.46,0.36-13.09-0.57-19.52-3.04c-21.61-8.28-33.67-30.73-29.71-52.71l-20.25-20.34l-2.29,1.86
		l-7.11,5.77c-91.97,74.64-106.58,194.45-107.1,259.23c-0.76,93.73,26.85,185.37,65.64,217.9c49.85,41.81,109.5,48.38,142.06,48.38
		c9.99,0,17.37-0.62,21.2-1.03c1.5-0.16,2.5-0.29,2.83-0.34l-3.75-26.45h101.53c-10.75-12.88-17.23-29.44-17.23-47.49
		c0-29.87,17.76-55.61,43.25-67.38c-25.48-11.78-43.25-37.51-43.25-67.38C428.35,717.56,446.11,691.82,471.6,680.05z"/>
	<path class="st5" d="M342.22,470.13c0.16-0.39,0.36-0.76,0.51-1.16l119.25-311.23c9.36-24.44-2.9-51.94-27.34-61.3
		c-5.57-2.13-11.29-3.15-16.93-3.15c-19.1,0-37.15,11.61-44.38,30.48L254.08,435c-1.09,2.83-1.85,5.71-2.37,8.59l52.81,53.06
		C317.58,486.84,330.17,478.01,342.22,470.13z"/>
	<path class="st5" d="M427.23,476.78c0-8.89,1.65-17.38,4.53-25.29c-19.64,8.66-42.81,20.64-68.81,37.18
		c-13.34,23.49-38.34,37.57-64.64,37.57c-8.82,0-17.78-1.58-26.48-4.92c-25.48-9.76-42.42-32.14-46.61-57.29
		c-71.06,68.21-83.01,169.73-83.46,226.29c-0.78,96.86,28.3,173.88,56.06,197.16c47.78,40.07,107.42,42.83,132.77,41.92v-0.83h11.75
		c0.32-0.04,0.55-0.07,0.58-0.07l0.01,0.07h101.53c-10.75-12.88-17.23-29.44-17.23-47.49c0-29.87,17.76-55.61,43.25-67.38
		c-25.48-11.78-43.25-37.51-43.25-67.38s17.76-55.61,43.25-67.38c-25.48-11.78-43.25-37.51-43.25-67.38
		c0-29.87,17.76-55.61,43.24-67.38C445,532.39,427.23,506.65,427.23,476.78z"/>
	<path class="st5" d="M454.03,476.78c0,26.17,21.29,47.47,47.47,47.47h333.3c26.17,0,47.46-21.29,47.46-47.47
		c0-26.17-21.29-47.47-47.46-47.47H502.21c-1.72,0.2-8.65,1.16-20.03,4.15C465.61,440.88,454.03,457.49,454.03,476.78z"/>
	<path class="st5" d="M501.5,833.62c-26.17,0-47.47,21.29-47.47,47.47s21.29,47.47,47.47,47.47h333.3
		c26.17,0,47.46-21.29,47.46-47.47s-21.29-47.47-47.46-47.47H501.5z"/>
	<path class="st5" d="M501.5,698.85c-26.17,0-47.47,21.29-47.47,47.47s21.29,47.47,47.47,47.47h333.3
		c26.17,0,47.46-21.29,47.46-47.47s-21.29-47.47-47.46-47.47H501.5z"/>
	<path class="st5" d="M834.79,564.08H501.5c-26.17,0-47.47,21.29-47.47,47.47c0,26.17,21.29,47.47,47.47,47.47h333.3
		c26.17,0,47.46-21.29,47.46-47.47C882.25,585.37,860.96,564.08,834.79,564.08z"/>
	<path class="st6" d="M501.5,429.31c-6.88,0-13.41,1.5-19.32,4.15c11.38-2.99,18.31-3.94,20.03-4.15H501.5z"/>
	<path class="st6" d="M500.37,402.57c-0.04,0-0.13,0.01-0.19,0.02C500.24,402.59,500.3,402.58,500.37,402.57L500.37,402.57z"/>
	<path class="st6" d="M342.35,928.57h0.59l-0.01-0.07C342.89,928.5,342.66,928.53,342.35,928.57z"/>
	<path class="st6" d="M474.49,407.68c15.17-4,24.12-4.95,25.69-5.09C491.12,402.75,482.48,404.54,474.49,407.68z"/>
	<linearGradient id="SVGID_4_" gradientUnits="userSpaceOnUse" x1="229.1805" y1="268.3107" x2="491.9259" y2="268.3107">
		<stop  offset="0" style="stop-color:#56FCFF"/>
		<stop  offset="0.2957" style="stop-color:#78C5FE"/>
		<stop  offset="0.6222" style="stop-color:#998FFD"/>
		<stop  offset="0.867" style="stop-color:#AE6EFC"/>
		<stop  offset="1" style="stop-color:#B661FC"/>
	</linearGradient>
	<path class="st7" d="M251.71,443.59c0.52-2.88,1.28-5.76,2.37-8.59l119.25-311.23c7.23-18.87,25.27-30.48,44.38-30.48
		c5.64,0,11.36,1.01,16.93,3.15c24.44,9.36,36.71,36.87,27.34,61.3L342.73,468.96c-0.15,0.4-0.35,0.77-0.51,1.16
		c13.14-8.6,25.66-16.12,37.45-22.68L487,167.32c7.07-18.46,6.51-38.63-1.59-56.78c-8.1-18.16-22.72-32.05-41.18-39.13
		c-38.23-14.64-81.26,4.54-95.91,42.77L229.18,425.1l2.29-1.86L251.71,443.59z"/>
	<linearGradient id="SVGID_5_" gradientUnits="userSpaceOnUse" x1="224.2011" y1="473.3416" x2="909.0465" y2="473.3416">
		<stop  offset="0" style="stop-color:#56FCFF"/>
		<stop  offset="0.2957" style="stop-color:#78C5FE"/>
		<stop  offset="0.6222" style="stop-color:#998FFD"/>
		<stop  offset="0.867" style="stop-color:#AE6EFC"/>
		<stop  offset="1" style="stop-color:#B661FC"/>
	</linearGradient>
	<path class="st8" d="M834.79,402.52H501.5c-0.38,0-0.75,0.05-1.13,0.06c-0.06,0-0.13,0.01-0.19,0.01
		c-1.57,0.14-10.52,1.09-25.69,5.09c-20.88,5.5-53.48,16.78-94.82,39.76c-11.8,6.56-24.31,14.08-37.45,22.68
		c-6.41,15.48-20.17,25.82-35.68,28.55c-1.85,0.32-3.71,0.56-5.59,0.66c-6.46,0.36-13.1-0.57-19.52-3.04
		c-21.61-8.28-33.67-30.73-29.71-52.71l-20.25-20.34l-2.28,1.86l-0.12,0.31c-4.89,12.76-5.93,26.03-3.84,38.62
		c4.19,25.15,21.13,47.53,46.61,57.29c8.71,3.34,17.67,4.92,26.48,4.92c26.29,0,51.3-14.08,64.64-37.57
		c26-16.54,49.16-28.52,68.81-37.18c-2.88,7.91-4.53,16.4-4.53,25.29c0,29.87,17.76,55.6,43.24,67.38
		c9.45-4.37,19.94-6.88,31.02-6.88h333.3c11.08,0,21.56,2.51,31.02,6.88c25.48-11.78,43.24-37.51,43.24-67.38
		C909.05,435.83,875.74,402.52,834.79,402.52z M834.79,524.25H501.5c-26.17,0-47.47-21.29-47.47-47.47
		c0-19.29,11.59-35.9,28.15-43.32c5.91-2.65,12.44-4.15,19.32-4.15h0.72h332.58c26.17,0,47.46,21.29,47.46,47.47
		C882.25,502.95,860.96,524.25,834.79,524.25z"/>
	<linearGradient id="SVGID_6_" gradientUnits="userSpaceOnUse" x1="427.2346" y1="611.5472" x2="909.0461" y2="611.5472">
		<stop  offset="0" style="stop-color:#56FCFF"/>
		<stop  offset="0.2957" style="stop-color:#78C5FE"/>
		<stop  offset="0.6222" style="stop-color:#998FFD"/>
		<stop  offset="0.867" style="stop-color:#AE6EFC"/>
		<stop  offset="1" style="stop-color:#B661FC"/>
	</linearGradient>
	<path class="st9" d="M909.05,611.55c0-29.87-17.76-55.61-43.24-67.38c-9.45,4.37-19.93,6.88-31.01,6.88H501.5
		c-11.08,0-21.56-2.51-31.02-6.88c-25.48,11.78-43.24,37.52-43.24,67.38c0,29.87,17.76,55.61,43.25,67.38
		c9.45-4.37,19.93-6.87,31.01-6.87h333.3c11.08,0,21.56,2.51,31.01,6.87C891.29,667.15,909.05,641.42,909.05,611.55z M834.79,659.01
		H501.5c-26.17,0-47.47-21.29-47.47-47.47c0-26.17,21.29-47.47,47.47-47.47h333.3c26.17,0,47.46,21.29,47.46,47.47
		C882.25,637.72,860.96,659.01,834.79,659.01z"/>
	<linearGradient id="SVGID_7_" gradientUnits="userSpaceOnUse" x1="470.4795" y1="544.1631" x2="865.8061" y2="544.1631">
		<stop  offset="0" style="stop-color:#56FCFF"/>
		<stop  offset="0.2957" style="stop-color:#78C5FE"/>
		<stop  offset="0.6222" style="stop-color:#998FFD"/>
		<stop  offset="0.867" style="stop-color:#AE6EFC"/>
		<stop  offset="1" style="stop-color:#B661FC"/>
	</linearGradient>
	<path class="st10" d="M501.5,537.29c-11.08,0-21.56,2.51-31.02,6.88c9.45,4.37,19.94,6.88,31.02,6.88h333.3
		c11.08,0,21.56-2.51,31.01-6.88c-9.45-4.37-19.93-6.88-31.01-6.88H501.5z"/>
	<linearGradient id="SVGID_8_" gradientUnits="userSpaceOnUse" x1="427.2346" y1="746.3145" x2="909.0461" y2="746.3145">
		<stop  offset="0" style="stop-color:#56FCFF"/>
		<stop  offset="0.2957" style="stop-color:#78C5FE"/>
		<stop  offset="0.6222" style="stop-color:#998FFD"/>
		<stop  offset="0.867" style="stop-color:#AE6EFC"/>
		<stop  offset="1" style="stop-color:#B661FC"/>
	</linearGradient>
	<path class="st11" d="M501.5,685.81c-11.08,0-21.56-2.51-31.01-6.87c-25.48,11.78-43.25,37.51-43.25,67.38s17.76,55.61,43.25,67.38
		c9.45-4.37,19.93-6.87,31.01-6.87h333.3c11.08,0,21.56,2.51,31.01,6.87c25.48-11.78,43.24-37.51,43.24-67.38
		s-17.76-55.61-43.24-67.38c-9.45,4.37-19.93,6.87-31.01,6.87H501.5z M882.25,746.31c0,26.17-21.29,47.47-47.46,47.47H501.5
		c-26.17,0-47.47-21.29-47.47-47.47s21.29-47.47,47.47-47.47h333.3C860.96,698.85,882.25,720.14,882.25,746.31z"/>
	<linearGradient id="SVGID_9_" gradientUnits="userSpaceOnUse" x1="470.4824" y1="678.9312" x2="865.8036" y2="678.9312">
		<stop  offset="0" style="stop-color:#56FCFF"/>
		<stop  offset="0.2957" style="stop-color:#78C5FE"/>
		<stop  offset="0.6222" style="stop-color:#998FFD"/>
		<stop  offset="0.867" style="stop-color:#AE6EFC"/>
		<stop  offset="1" style="stop-color:#B661FC"/>
	</linearGradient>
	<path class="st12" d="M501.5,672.06c-11.08,0-21.56,2.51-31.01,6.87c9.45,4.37,19.93,6.87,31.01,6.87h333.3
		c11.08,0,21.56-2.51,31.01-6.87c-9.45-4.37-19.93-6.87-31.01-6.87H501.5z"/>
	<linearGradient id="SVGID_10_" gradientUnits="userSpaceOnUse" x1="470.4824" y1="813.6977" x2="865.8036" y2="813.6977">
		<stop  offset="0" style="stop-color:#56FCFF"/>
		<stop  offset="0.2957" style="stop-color:#78C5FE"/>
		<stop  offset="0.6222" style="stop-color:#998FFD"/>
		<stop  offset="0.867" style="stop-color:#AE6EFC"/>
		<stop  offset="1" style="stop-color:#B661FC"/>
	</linearGradient>
	<path class="st13" d="M501.5,806.82c-11.08,0-21.56,2.51-31.01,6.87c9.45,4.37,19.93,6.87,31.01,6.87h333.3
		c11.08,0,21.56-2.51,31.01-6.87c-9.45-4.37-19.93-6.87-31.01-6.87H501.5z"/>
	<path class="st6" d="M330.59,929.4c6.2-0.22,10.34-0.66,11.75-0.83h-11.75V929.4z"/>
	<linearGradient id="SVGID_11_" gradientUnits="userSpaceOnUse" x1="114.9535" y1="690.7449" x2="798.3446" y2="690.7449">
		<stop  offset="0" style="stop-color:#56FCFF"/>
		<stop  offset="0.2957" style="stop-color:#78C5FE"/>
		<stop  offset="0.6222" style="stop-color:#998FFD"/>
		<stop  offset="0.867" style="stop-color:#AE6EFC"/>
		<stop  offset="1" style="stop-color:#B661FC"/>
	</linearGradient>
	<path class="st14" d="M501.5,955.34c-22.9,0-43.39-10.43-57.03-26.77H342.94h-0.59c-1.41,0.17-5.55,0.6-11.75,0.83
		c-25.35,0.91-84.99-1.84-132.77-41.92c-27.76-23.28-56.84-100.29-56.06-197.16c0.46-56.56,12.41-158.08,83.46-226.29
		c-2.1-12.59-1.05-25.87,3.84-38.62l0.12-0.31l-7.11,5.77c-91.97,74.64-106.58,194.45-107.1,259.23
		c-0.76,93.73,26.85,185.37,65.64,217.9c49.85,41.81,109.5,48.38,142.06,48.38c9.99,0,17.37-0.62,21.2-1.03h454.48v-0.02H501.5z"/>
	<linearGradient id="SVGID_12_" gradientUnits="userSpaceOnUse" x1="427.2346" y1="884.518" x2="909.0465" y2="884.518">
		<stop  offset="0" style="stop-color:#56FCFF"/>
		<stop  offset="0.2957" style="stop-color:#78C5FE"/>
		<stop  offset="0.6222" style="stop-color:#998FFD"/>
		<stop  offset="0.867" style="stop-color:#AE6EFC"/>
		<stop  offset="1" style="stop-color:#B661FC"/>
	</linearGradient>
	<path class="st15" d="M865.8,813.7c-9.45,4.37-19.93,6.87-31.01,6.87H501.5c-11.08,0-21.56-2.51-31.01-6.87
		c-25.48,11.78-43.25,37.52-43.25,67.38c0,18.05,6.49,34.61,17.23,47.49c13.63,16.34,34.13,26.77,57.03,26.77h296.85h36.45
		c40.95,0,74.26-33.31,74.26-74.26C909.05,851.21,891.29,825.47,865.8,813.7z M834.79,928.55H501.5
		c-26.17,0-47.47-21.29-47.47-47.47s21.29-47.47,47.47-47.47h333.3c26.17,0,47.46,21.29,47.46,47.47S860.96,928.55,834.79,928.55z"
		/>
</g>
</svg>
